<svg width="186" height="1024" viewBox="0 0 186 1024" fill="none" xmlns="http://www.w3.org/2000/svg">
<path d="M35.0696 1024H141.931C153.33 1024 162.564 1015.81 162.564 1005.72V928.908C181.258 927.72 192.272 909.198 182.161 894.745L176.382 886.489C174.114 883.246 170.948 880.569 167.183 878.713C163.419 876.856 159.181 875.882 154.871 875.882H139.247V870.202C139.249 868.778 138.933 867.369 138.319 866.053C137.705 864.738 136.804 863.542 135.668 862.535C134.531 861.528 133.182 860.729 131.696 860.184C130.211 859.639 128.618 859.359 127.01 859.359C119.307 859.359 111.92 862.067 106.473 866.888C101.027 871.709 97.9666 878.248 97.9666 885.066V919.594C83.4049 921.04 72.3242 927.262 64.193 935.917C55.0521 945.631 49.711 958.249 46.5224 970.303C43.7822 981.178 42.225 992.259 41.8722 1003.4C41.7393 1006.83 41.7393 1009.84 41.7659 1012.24H35.0829C30.8309 1012.24 26.6715 1011.14 23.116 1009.08C19.5605 1007.01 16.7639 1004.07 15.07 1000.62C13.3762 997.17 12.859 993.355 13.582 989.647C14.305 985.938 16.2366 982.497 19.1395 979.747L29.7286 969.692C37.1866 962.612 41.2493 953.247 41.061 943.569C40.8726 933.89 36.4479 924.654 28.7188 917.806L18.329 908.598C17.7162 908.037 16.9832 907.589 16.1727 907.281C15.3622 906.972 14.4905 906.81 13.6084 906.803C12.7263 906.797 11.8516 906.945 11.0352 907.241C10.2188 907.537 9.47704 907.973 8.8533 908.525C8.22956 909.077 7.73629 909.734 7.40226 910.457C7.06824 911.179 6.90016 911.954 6.90783 912.734C6.91549 913.515 7.09875 914.287 7.44691 915.004C7.79507 915.721 8.30115 916.37 8.93564 916.913L19.3387 926.121C24.6369 930.812 27.6701 937.141 27.799 943.773C27.9279 950.405 25.1423 956.822 20.0296 961.672L9.42723 971.726C4.76635 976.153 1.6665 981.687 0.507969 987.651C-0.650567 993.614 0.182592 999.747 2.90524 1005.3C5.62788 1010.85 10.1216 1015.57 15.8351 1018.9C21.5487 1022.22 28.2335 1023.99 35.0696 1024ZM125.961 871.154V881.762C125.961 883.321 126.661 884.817 127.906 885.92C129.152 887.022 130.842 887.642 132.604 887.642H154.871C159.03 887.642 162.896 889.547 165.102 892.687L170.881 900.942C172.015 902.555 172.64 904.407 172.692 906.306C172.744 908.205 172.221 910.081 171.177 911.741C170.133 913.401 168.606 914.783 166.756 915.744C164.905 916.705 162.797 917.21 160.651 917.207H155.934C154.173 917.207 152.483 917.826 151.237 918.929C149.991 920.032 149.291 921.527 149.291 923.087V1005.72C149.291 1007.45 148.516 1009.11 147.135 1010.33C145.755 1011.55 143.883 1012.24 141.931 1012.24H134.583V1005.72C134.585 1001.7 133.691 997.71 131.951 993.989C130.211 990.268 127.66 986.887 124.443 984.038C121.227 981.19 117.408 978.931 113.204 977.389C109.001 975.848 104.496 975.055 99.9462 975.055H88.2809C86.5191 975.055 84.8294 975.674 83.5835 976.777C82.3377 977.879 81.6378 979.375 81.6378 980.935C81.6378 982.494 82.3377 983.99 83.5835 985.092C84.8294 986.195 86.5191 986.815 88.2809 986.815H99.9462C111.731 986.815 121.297 995.282 121.297 1005.72V1012.24H55.0521C55.0122 1009.97 55.0255 1007.1 55.1451 1003.78C55.464 995.294 56.5402 984.086 59.4631 972.973C62.4127 961.777 67.1293 951.158 74.3968 943.443C81.4518 935.94 91.0046 931.037 104.61 931.037C106.372 931.037 108.061 930.417 109.307 929.314C110.553 928.212 111.253 926.716 111.253 925.156V885.066C111.253 877.681 117.75 871.625 125.961 871.154Z" fill="black"/>
<path d="M97.5 359L97.5 237.792" stroke="black" stroke-width="10"/>
<path d="M101 91.7708L100.799 -25M105.518 908.5L101 506.255" stroke="black" stroke-width="10"/>
<path d="M73.3549 200.794H81.3391L99.3036 205.774L111.28 221.824V240.64H81.3391H46.4082L33.9329 236.766L36.927 196.92L46.4082 173.123L63.8737 153.753L87.8263 142.132C88.3253 132.355 87.8263 115.014 87.8263 121.102C87.8263 127.189 92.6278 86.6996 94.3135 90.664L114.274 86.79" stroke="black" stroke-width="10"/>
<path d="M73.3549 463.113H81.3391L99.3035 468.094L111.28 484.143V502.959H81.3391H46.4082L33.9329 499.085L36.9269 459.239L46.4082 435.442L63.8736 416.073L87.8262 404.451C88.3253 394.674 87.8262 377.333 87.8262 383.421C87.8262 389.509 92.6278 349.019 94.3134 352.983L114.274 349.109" stroke="black" stroke-width="10"/>
<path d="M155.608 418.84V462.006V405.558L171.351 401.684L177.649 388.955L171.351 374.566L159.656 364.051H142.563L135.816 359.071V349.109H120.522H113.775" stroke="black" stroke-width="10"/>
</svg>
