<svg width="1142" height="818" viewBox="0 0 1142 818" fill="none" xmlns="http://www.w3.org/2000/svg">
<g id="capybara">
<g id="backbackleg">
<path id="Rectangle 10" d="M60.8079 617.841L17.2923 402.503L142.638 390.38L175.927 601.576L60.8079 617.841Z" fill="#5E548E" stroke="black"/>
<path id="Rectangle 11" d="M179.714 733.012L61.5541 618.71L176.373 602.293L227.703 735.846L179.714 733.012Z" fill="#5E548E" stroke="black"/>
<path id="Rectangle 12" d="M178.397 731H227.897L237.897 789H165.897L178.397 731Z" fill="black"/>
</g>
<g id="frontbackleg">
<g id="Group 1">
<path id="Rectangle 5" d="M760.608 771.469L658.844 702.804L757.227 688.055L785.333 766.621L760.608 771.469Z" fill="#5E548E" stroke="black"/>
<rect id="Rectangle 4" x="619.804" y="439.633" width="101.375" height="267.282" transform="rotate(-7.9768 619.804 439.633)" fill="#5E548E" stroke="black"/>
</g>
<path id="Rectangle 6" d="M757.452 768.508L779.307 750.632L810.5 802.271L770.511 802.271L757.452 768.508Z" fill="black"/>
</g>
<path id="body" d="M811.5 376C811.5 437.59 766.246 493.456 692.844 533.954C619.459 574.442 518.046 599.5 406 599.5C293.954 599.5 192.541 574.442 119.156 533.954C45.7541 493.456 0.5 437.59 0.5 376C0.5 314.41 45.7541 258.544 119.156 218.046C192.541 177.558 293.954 152.5 406 152.5C518.046 152.5 619.459 177.558 692.844 218.046C766.246 258.544 811.5 314.41 811.5 376Z" fill="#5E548E" stroke="black"/>
<rect id="neck" x="708.638" y="206.66" width="163.728" height="151.911" transform="rotate(24.0784 708.638 206.66)" fill="#5E548E" stroke="black"/>
<path id="head" d="M1108.5 175C1108.5 211.762 1083.98 245.125 1044.16 269.325C1004.35 293.519 949.313 308.5 888.5 308.5C827.687 308.5 772.655 293.519 732.843 269.325C693.021 245.125 668.5 211.762 668.5 175C668.5 138.238 693.021 104.875 732.843 80.675C772.655 56.4807 827.687 41.5 888.5 41.5C949.313 41.5 1004.35 56.4807 1044.16 80.675C1083.98 104.875 1108.5 138.238 1108.5 175Z" fill="#5E548E" stroke="black"/>
<path id="leftear" d="M672.314 210.278L619.33 125.687L719.05 121.361L672.314 210.278Z" fill="#5E548E" stroke="black"/>
<path id="rightear" d="M733.099 109.893L717.654 26.682L792.481 66.2257L733.099 109.893Z" fill="#5E548E" stroke="black"/>
<path id="nose" d="M1102.84 123.285C1113.26 140.794 1112.95 162.492 1103.94 183.455C1094.94 204.417 1077.26 224.607 1053.01 239.028C1028.76 253.45 1002.58 259.353 979.865 257.259C957.146 255.165 937.931 245.083 927.516 227.574C917.101 210.064 917.413 188.367 926.417 167.404C935.42 146.441 953.104 126.252 977.349 111.83C1001.59 97.4081 1027.78 91.5055 1050.49 93.5992C1073.21 95.693 1092.43 105.775 1102.84 123.285Z" fill="black" stroke="black"/>
<ellipse id="mouth" cx="959.3" cy="285.962" rx="67.3837" ry="20.8403" transform="rotate(-12.5291 959.3 285.962)" fill="black"/>
<g id="teeth">
<rect id="Rectangle 2" x="911.644" y="279.199" width="32.796" height="80.8626" transform="rotate(-20.629 911.644 279.199)" fill="white" stroke="black"/>
<rect id="Rectangle 3" x="960.575" y="264.847" width="26.0917" height="78.6424" transform="rotate(-9.42251 960.575 264.847)" fill="white" stroke="black"/>
</g>
<g id="lefteye">
<ellipse id="Ellipse 5" cx="764.197" cy="174.386" rx="26.9053" ry="15.7938" transform="rotate(-30.965 764.197 174.386)" fill="white"/>
<ellipse id="Ellipse 7" cx="775.793" cy="170.179" rx="10.5528" ry="6.43495" transform="rotate(-48.7963 775.793 170.179)" fill="black"/>
<g id="righteye">
<ellipse id="Ellipse 6" cx="820.11" cy="120.568" rx="24.029" ry="13.3807" transform="rotate(-75.871 820.11 120.568)" fill="white"/>
<ellipse id="Ellipse 8" cx="818.288" cy="132.338" rx="9.5" ry="6.5" transform="rotate(-45.6725 818.288 132.338)" fill="black"/>
</g>
</g>
<g id="frontfrontleg">
<rect id="Rectangle 7" x="436.648" y="474.552" width="106.609" height="272.516" transform="rotate(-21.4027 436.648 474.552)" fill="#5E548E" stroke="black"/>
<path id="Rectangle 8" d="M606.027 783.558L536.49 728.302L635.43 689.415L629.232 758.572L606.027 783.558Z" fill="#5E548E" stroke="black"/>
<path id="Rectangle 9" d="M605 782.654L630 759.154L650.5 803.254L605 803.254L605 782.654Z" fill="black"/>
</g>
<g id="frontbackleg_2">
<rect id="Rectangle 13" x="137.64" y="467.998" width="110.449" height="187.949" transform="rotate(-20.5354 137.64 467.998)" fill="#5E548E" stroke="black"/>
<path id="Rectangle 14" d="M204.64 642.876C204.385 642.657 204.165 642.469 203.982 642.312L307.105 605.866L341.121 723.173C341.065 723.268 340.988 723.397 340.892 723.558C340.672 723.923 340.35 724.449 339.941 725.09C339.124 726.372 337.961 728.112 336.579 729.944C335.197 731.777 333.602 733.695 331.921 735.336C330.234 736.982 328.487 738.325 326.805 739.04C326.737 739.068 326.543 739.094 326.139 738.998C325.755 738.907 325.26 738.725 324.652 738.446C323.438 737.89 321.842 736.98 319.912 735.755C316.056 733.309 310.921 729.643 304.946 725.152C292.999 716.17 277.726 703.911 262.669 691.553C247.613 679.196 232.777 666.745 221.705 657.383C216.169 652.702 211.574 648.794 208.363 646.056C206.757 644.687 205.498 643.61 204.64 642.876Z" fill="#5E548E" stroke="black"/>
<path id="Rectangle 15" d="M326.5 739L335.5 731.5L341.5 723L391 788.196L323.5 788.196L326.5 739Z" fill="black"/>
</g>
</g>
</svg>
