<svg width="490" height="490" viewBox="0 0 490 490" fill="none" xmlns="http://www.w3.org/2000/svg">
<g id="geartwo">
<path id="Rectangle 13" d="M234.613 24.5434C234.613 21.7819 236.851 19.5433 239.613 19.5433L249.613 19.5433C252.374 19.5433 254.613 21.7819 254.613 24.5433L254.613 464.543C254.613 467.305 252.374 469.543 249.613 469.543L239.613 469.543C236.851 469.543 234.613 467.305 234.613 464.543L234.613 24.5434Z" fill="#5E548E"/>
<path id="Rectangle 14" d="M159.971 41.2312C159.027 38.6363 160.365 35.7671 162.96 34.8226L172.357 31.4024C174.951 30.4579 177.821 31.7959 178.765 34.3908L329.254 447.855C330.198 450.45 328.86 453.32 326.266 454.264L316.869 457.684C314.274 458.629 311.405 457.291 310.46 454.696L159.971 41.2312Z" fill="#5E548E"/>
<path id="Rectangle 15" d="M95.5389 82.4414C93.7639 80.3261 94.0398 77.1723 96.1552 75.3973L103.816 68.9694C105.931 67.1944 109.085 67.4703 110.86 69.5857L393.686 406.645C395.461 408.761 395.185 411.914 393.07 413.689L385.41 420.117C383.294 421.892 380.14 421.616 378.365 419.501L95.5389 82.4414Z" fill="#5E548E"/>
<path id="Rectangle 16" d="M49.087 143.204C46.6956 141.823 45.8762 138.765 47.2569 136.373L52.2569 127.713C53.6376 125.322 56.6956 124.502 59.087 125.883L440.138 345.883C442.53 347.264 443.349 350.322 441.968 352.713L436.968 361.373C435.588 363.765 432.53 364.584 430.138 363.204L49.087 143.204Z" fill="#5E548E"/>
<path id="Rectangle 17" d="M29.6914 292.594C26.9719 293.073 24.3786 291.258 23.8991 288.538L22.1626 278.69C21.6831 275.971 23.4989 273.377 26.2184 272.898L459.534 196.493C462.253 196.013 464.847 197.829 465.326 200.548L467.063 210.397C467.542 213.116 465.726 215.709 463.007 216.189L29.6914 292.594Z" fill="#5E548E"/>
<path id="Rectangle 19" d="M59.087 363.204C56.6955 364.584 53.6376 363.765 52.2569 361.373L47.2569 352.713C45.8762 350.322 46.6955 347.264 49.087 345.883L430.138 125.883C432.53 124.502 435.588 125.322 436.968 127.713L441.968 136.373C443.349 138.765 442.53 141.823 440.138 143.204L59.087 363.204Z" fill="#5E548E"/>
<path id="Rectangle 20" d="M110.86 419.501C109.085 421.616 105.931 421.892 103.816 420.117L96.1551 413.689C94.0398 411.914 93.7639 408.761 95.5389 406.645L378.365 69.5857C380.14 67.4703 383.294 67.1944 385.41 68.9694L393.07 75.3973C395.185 77.1723 395.461 80.3261 393.686 82.4414L110.86 419.501Z" fill="#5E548E"/>
<path id="Rectangle 21" d="M178.765 454.696C177.821 457.291 174.951 458.629 172.356 457.684L162.96 454.264C160.365 453.32 159.027 450.45 159.971 447.855L310.46 34.3907C311.405 31.7959 314.274 30.4579 316.869 31.4024L326.266 34.8226C328.86 35.767 330.198 38.6362 329.254 41.2311L178.765 454.696Z" fill="#5E548E"/>
<path id="Rectangle 18" d="M26.2184 216.189C23.4989 215.709 21.6831 213.116 22.1626 210.397L23.8991 200.548C24.3786 197.829 26.9719 196.013 29.6913 196.493L463.007 272.898C465.726 273.377 467.542 275.971 467.063 278.69L465.326 288.538C464.847 291.258 462.253 293.074 459.534 292.594L26.2184 216.189Z" fill="#5E548E"/>
<circle id="Ellipse 1" cx="244.38" cy="244.072" r="200" transform="rotate(5.22726 244.38 244.072)" fill="url(#paint0_radial_101_18)"/>
</g>
<defs>
<radialGradient id="paint0_radial_101_18" cx="0" cy="0" r="1" gradientUnits="userSpaceOnUse" gradientTransform="translate(244.38 244.072) rotate(90) scale(200)">
<stop stop-color="#99B2DD"/>
<stop offset="1" stop-color="#5E548E"/>
</radialGradient>
</defs>
</svg>
