<svg width="550" height="550" viewBox="0 0 550 550" fill="none" xmlns="http://www.w3.org/2000/svg">
<path d="M33.0033 164.151C28.2203 161.389 26.5816 155.273 29.343 150.49L44.343 124.51C47.1044 119.727 53.2203 118.088 58.0033 120.849L516.997 385.849C521.78 388.611 523.418 394.727 520.657 399.51L505.657 425.49C502.896 430.273 496.78 431.912 491.997 429.151L33.0033 164.151Z" fill="url(#paint0_linear_8_3)"/>
<path d="M58.0033 429.151C53.2203 431.912 47.1044 430.273 44.343 425.49L29.343 399.51C26.5816 394.727 28.2203 388.611 33.0033 385.849L491.997 120.849C496.78 118.088 502.896 119.727 505.657 124.51L520.657 150.49C523.418 155.273 521.78 161.389 516.997 164.151L58.0033 429.151Z" fill="url(#paint1_linear_8_3)"/>
<path d="M491.997 120.849C496.78 118.088 502.896 119.727 505.657 124.51L520.657 150.49C523.418 155.273 521.78 161.389 516.997 164.151L58.0033 429.151C53.2203 431.912 47.1044 430.273 44.343 425.49L29.343 399.51C26.5816 394.727 28.2203 388.611 33.0033 385.849L491.997 120.849Z" fill="url(#paint2_linear_8_3)"/>
<path d="M429.151 491.997C431.912 496.78 430.273 502.896 425.49 505.657L399.51 520.657C394.727 523.418 388.611 521.78 385.849 516.997L120.849 58.0033C118.088 53.2204 119.727 47.1045 124.51 44.3431L150.49 29.3431C155.273 26.5817 161.389 28.2204 164.151 33.0033L429.151 491.997Z" fill="url(#paint3_linear_8_3)"/>
<path d="M164.184 516.939C161.423 521.722 155.273 523.418 150.49 520.657L124.51 505.657C119.727 502.896 118.088 496.78 120.849 491.997L385.849 33.0033C388.611 28.2203 394.727 26.5816 399.51 29.343L425.49 44.343C430.273 47.1044 431.879 53.2783 429.117 58.0612C326.517 235.77 266.784 339.23 164.184 516.939Z" fill="url(#paint4_linear_8_3)"/>
<path d="M230.561 537.441C229.132 542.776 223.648 545.941 218.314 544.512L189.336 536.747C184.001 535.318 180.835 529.835 182.265 524.5L319.439 12.5593C320.868 7.2246 326.352 4.05878 331.686 5.4882L360.664 13.2528C365.999 14.6822 369.165 20.1656 367.735 25.5002L230.561 537.441Z" fill="url(#paint5_linear_8_3)"/>
<path d="M230.561 12.5591C229.132 7.22446 223.648 4.05864 218.314 5.48806L189.336 13.2526C184.001 14.6821 180.835 20.1654 182.265 25.5001L319.439 537.441C320.868 542.775 326.352 545.941 331.686 544.512L360.664 536.747C365.999 535.318 369.165 529.834 367.735 524.5L230.561 12.5591Z" fill="url(#paint6_linear_8_3)"/>
<path d="M25.5001 367.735C20.1655 369.165 14.6821 365.999 13.2527 360.664L5.48812 331.686C4.0587 326.352 7.22453 320.868 12.5592 319.439L524.5 182.265C529.835 180.835 535.318 184.001 536.747 189.336L544.512 218.314C545.941 223.648 542.776 229.132 537.441 230.561L25.5001 367.735Z" fill="url(#paint7_linear_8_3)"/>
<path d="M12.5592 230.561C7.22452 229.132 4.05871 223.648 5.48812 218.314L13.2527 189.336C14.6821 184.001 20.1655 180.835 25.5001 182.265L537.441 319.439C542.776 320.868 545.941 326.352 544.512 331.686L536.747 360.664C535.318 365.999 529.835 369.165 524.5 367.735L12.5592 230.561Z" fill="url(#paint8_linear_8_3)"/>
<path d="M9.99999 300C4.47714 300 0 295.523 0 290V260C0 254.477 4.47715 250 10 250H540C545.523 250 550 254.477 550 260V290C550 295.523 545.523 300 540 300H9.99999Z" fill="url(#paint9_linear_8_3)"/>
<path d="M69.939 105.294C66.0338 101.389 66.0338 95.0575 69.939 91.1523L91.1522 69.9391C95.0575 66.0338 101.389 66.0338 105.294 69.9391L480.061 444.706C483.966 448.611 483.966 454.943 480.061 458.848L458.848 480.061C454.943 483.966 448.611 483.966 444.706 480.061L69.939 105.294Z" fill="url(#paint10_linear_8_3)"/>
<path d="M300 540C300 545.523 295.523 550 290 550H260C254.477 550 250 545.523 250 540V9.99999C250 4.47714 254.477 0 260 0H290C295.523 0 300 4.47715 300 10V540Z" fill="url(#paint11_linear_8_3)"/>
<path d="M444.706 69.9391C448.611 66.0338 454.943 66.0338 458.848 69.9391L480.061 91.1523C483.966 95.0575 483.966 101.389 480.061 105.294L105.294 480.061C101.389 483.966 95.0575 483.966 91.1522 480.061L69.939 458.848C66.0338 454.943 66.0338 448.611 69.939 444.706L444.706 69.9391Z" fill="url(#paint12_linear_8_3)"/>
<path d="M525 275C525 413.071 413.071 525 275 525C136.929 525 25 413.071 25 275C25 136.929 136.929 25.0001 275 25.0001C413.071 25.0001 525 136.929 525 275Z" fill="url(#paint13_linear_8_3)"/>
<defs>
<linearGradient id="paint0_linear_8_3" x1="275" y1="0" x2="275" y2="550" gradientUnits="userSpaceOnUse">
<stop stop-color="#5E548E"/>
<stop offset="1" stop-color="#99B2DD"/>
</linearGradient>
<linearGradient id="paint1_linear_8_3" x1="275" y1="0" x2="275" y2="550" gradientUnits="userSpaceOnUse">
<stop stop-color="#5E548E"/>
<stop offset="1" stop-color="#99B2DD"/>
</linearGradient>
<linearGradient id="paint2_linear_8_3" x1="275" y1="0" x2="275" y2="550" gradientUnits="userSpaceOnUse">
<stop stop-color="#5E548E"/>
<stop offset="1" stop-color="#99B2DD"/>
</linearGradient>
<linearGradient id="paint3_linear_8_3" x1="275" y1="0" x2="275" y2="550" gradientUnits="userSpaceOnUse">
<stop stop-color="#5E548E"/>
<stop offset="1" stop-color="#99B2DD"/>
</linearGradient>
<linearGradient id="paint4_linear_8_3" x1="275" y1="0" x2="275" y2="550" gradientUnits="userSpaceOnUse">
<stop stop-color="#5E548E"/>
<stop offset="1" stop-color="#99B2DD"/>
</linearGradient>
<linearGradient id="paint5_linear_8_3" x1="275" y1="0" x2="275" y2="550" gradientUnits="userSpaceOnUse">
<stop stop-color="#5E548E"/>
<stop offset="1" stop-color="#99B2DD"/>
</linearGradient>
<linearGradient id="paint6_linear_8_3" x1="275" y1="0" x2="275" y2="550" gradientUnits="userSpaceOnUse">
<stop stop-color="#5E548E"/>
<stop offset="1" stop-color="#99B2DD"/>
</linearGradient>
<linearGradient id="paint7_linear_8_3" x1="275" y1="0" x2="275" y2="550" gradientUnits="userSpaceOnUse">
<stop stop-color="#5E548E"/>
<stop offset="1" stop-color="#99B2DD"/>
</linearGradient>
<linearGradient id="paint8_linear_8_3" x1="275" y1="0" x2="275" y2="550" gradientUnits="userSpaceOnUse">
<stop stop-color="#5E548E"/>
<stop offset="1" stop-color="#99B2DD"/>
</linearGradient>
<linearGradient id="paint9_linear_8_3" x1="275" y1="0" x2="275" y2="550" gradientUnits="userSpaceOnUse">
<stop stop-color="#5E548E"/>
<stop offset="1" stop-color="#99B2DD"/>
</linearGradient>
<linearGradient id="paint10_linear_8_3" x1="275" y1="0" x2="275" y2="550" gradientUnits="userSpaceOnUse">
<stop stop-color="#5E548E"/>
<stop offset="1" stop-color="#99B2DD"/>
</linearGradient>
<linearGradient id="paint11_linear_8_3" x1="275" y1="0" x2="275" y2="550" gradientUnits="userSpaceOnUse">
<stop stop-color="#5E548E"/>
<stop offset="1" stop-color="#99B2DD"/>
</linearGradient>
<linearGradient id="paint12_linear_8_3" x1="275" y1="0" x2="275" y2="550" gradientUnits="userSpaceOnUse">
<stop stop-color="#5E548E"/>
<stop offset="1" stop-color="#99B2DD"/>
</linearGradient>
<linearGradient id="paint13_linear_8_3" x1="275" y1="0" x2="275" y2="550" gradientUnits="userSpaceOnUse">
<stop stop-color="#5E548E"/>
<stop offset="1" stop-color="#99B2DD"/>
</linearGradient>
</defs>
</svg>
