<svg width="352" height="381" viewBox="0 0 352 381" fill="none" xmlns="http://www.w3.org/2000/svg">
<g id="timemanagement">
<g id="Icons">
<g id="mail">
<path id="Vector" opacity="0.2" d="M347.693 140.473H309.853C307.512 140.473 305.613 142.372 305.613 144.713V164.413C305.613 166.755 307.512 168.653 309.853 168.653H347.693C350.035 168.653 351.933 166.755 351.933 164.413V144.713C351.933 142.372 350.035 140.473 347.693 140.473Z" fill="#263238"/>
<path id="Vector_2" d="M306.403 143.573L326.543 153.913C327.176 154.232 327.875 154.397 328.583 154.397C329.292 154.397 329.99 154.232 330.623 153.913L351.283 143.493" stroke="white" stroke-width="0.75" stroke-linecap="round" stroke-linejoin="round"/>
</g>
<path id="shoppingcart" opacity="0.2" d="M57.7232 138.493C57.5721 138.298 57.3782 138.139 57.1563 138.03C56.9344 137.921 56.6905 137.864 56.4432 137.863H15.1032L13.4832 133.073C13.3707 132.766 13.1665 132.5 12.8983 132.313C12.63 132.125 12.3106 132.024 11.9832 132.023H1.48322C1.07942 132.055 0.702487 132.238 0.427582 132.536C0.152676 132.833 0 133.223 0 133.628C0 134.033 0.152676 134.424 0.427582 134.721C0.702487 135.018 1.07942 135.201 1.48322 135.233H10.7932L20.8832 165.523C20.9885 165.843 21.1921 166.122 21.4651 166.319C21.738 166.517 22.0663 166.623 22.4032 166.623H22.9932C22.4537 167.458 22.1494 168.423 22.1121 169.417C22.0748 170.41 22.3061 171.395 22.7815 172.269C23.2569 173.142 23.9589 173.871 24.8136 174.378C25.6683 174.886 26.6441 175.154 27.6382 175.154C28.6324 175.154 29.6081 174.886 30.4628 174.378C31.3175 173.871 32.0195 173.142 32.4949 172.269C32.9703 171.395 33.2016 170.41 33.1643 169.417C33.1271 168.423 32.8227 167.458 32.2832 166.623H39.9932C39.4537 167.458 39.1494 168.423 39.1121 169.417C39.0748 170.41 39.3061 171.395 39.7815 172.269C40.2569 173.142 40.9589 173.871 41.8136 174.378C42.6683 174.886 43.6441 175.154 44.6382 175.154C45.6324 175.154 46.6081 174.886 47.4628 174.378C48.3175 173.871 49.0195 173.142 49.4949 172.269C49.9703 171.395 50.2016 170.41 50.1643 169.417C50.1271 168.423 49.8227 167.458 49.2832 166.623H50.5232C50.927 166.591 51.3039 166.408 51.5788 166.111C51.8538 165.814 52.0064 165.423 52.0064 165.018C52.0064 164.613 51.8538 164.223 51.5788 163.926C51.3039 163.628 50.927 163.445 50.5232 163.413H23.5232L21.7632 158.123H51.7632C52.1163 158.122 52.4593 158.005 52.7394 157.79C53.0195 157.575 53.2211 157.274 53.3132 156.933L57.8832 139.933C57.9717 139.698 58.0033 139.444 57.9755 139.194C57.9477 138.944 57.8613 138.704 57.7232 138.493V138.493ZM27.7232 171.863C27.2644 171.863 26.8158 171.727 26.4343 171.472C26.0528 171.217 25.7554 170.855 25.5798 170.431C25.4042 170.007 25.3583 169.541 25.4478 169.091C25.5373 168.641 25.7583 168.227 26.0827 167.903C26.4072 167.578 26.8206 167.357 27.2706 167.268C27.7206 167.178 28.1871 167.224 28.611 167.4C29.035 167.575 29.3973 167.873 29.6522 168.254C29.9071 168.636 30.0432 169.084 30.0432 169.543C30.0433 169.852 29.9817 170.158 29.862 170.443C29.7422 170.728 29.5669 170.986 29.3461 171.202C29.1254 171.418 28.8637 171.588 28.5764 171.701C28.2891 171.815 27.9821 171.87 27.6732 171.863H27.7232ZM44.7232 171.863C44.2644 171.863 43.8158 171.727 43.4343 171.472C43.0528 171.217 42.7554 170.855 42.5798 170.431C42.4042 170.007 42.3583 169.541 42.4478 169.091C42.5373 168.641 42.7583 168.227 43.0827 167.903C43.4072 167.578 43.8206 167.357 44.2706 167.268C44.7206 167.178 45.1871 167.224 45.611 167.4C46.035 167.575 46.3973 167.873 46.6522 168.254C46.9071 168.636 47.0432 169.084 47.0432 169.543C47.0433 169.852 46.9817 170.158 46.862 170.443C46.7422 170.728 46.5669 170.986 46.3461 171.202C46.1254 171.418 45.8637 171.588 45.5764 171.701C45.2891 171.815 44.9821 171.87 44.6732 171.863H44.7232ZM49.0032 154.863H43.0632V141.073H49.0032V154.863ZM33.9132 141.073H39.8532V154.863H33.9132V141.073ZM30.7032 154.863H24.7032V141.073H30.7032V154.863ZM16.1732 141.073H21.4832V154.863H20.7632L16.1732 141.073ZM52.1732 149.193V141.073H54.3632L52.1732 149.193Z" fill="#263238"/>
<path id="cog" opacity="0.2" d="M311.483 62.0233L315.193 60.3333L314.403 55.8833L310.313 55.5633C309.795 54.1893 309.106 52.8858 308.263 51.6833L310.373 48.1233L307.183 44.9233L303.593 47.0633C301.528 45.6594 299.191 44.7054 296.733 44.2633L295.733 40.1633H291.213L290.213 44.2833C288.809 44.551 287.443 44.9875 286.143 45.5833L282.913 42.7833L279.213 45.3733L280.733 49.3733C279.743 50.3929 278.874 51.5238 278.143 52.7433L273.883 52.3033L272.333 56.5533L275.863 58.9433C275.691 59.934 275.604 60.9377 275.603 61.9433C275.603 62.3733 275.603 62.7933 275.653 63.2133L271.953 65.2833L273.123 69.6533H277.313C277.934 70.9614 278.709 72.1902 279.623 73.3133L277.773 77.0233L281.233 79.9233L284.593 77.5233C285.854 78.2503 287.197 78.8244 288.593 79.2333L289.263 83.2333L293.773 83.6333L295.123 79.7933C296.603 79.6652 298.061 79.3528 299.463 78.8633L302.303 81.7433L306.223 79.4833L305.143 75.5933C306.275 74.6281 307.283 73.5264 308.143 72.3133L312.143 73.0433L314.083 69.0233L310.963 66.4433C311.316 64.9967 311.491 63.5123 311.483 62.0233V62.0233ZM304.793 61.9433C304.793 64.1762 304.131 66.3591 302.891 68.2157C301.65 70.0723 299.887 71.5194 297.824 72.3739C295.761 73.2284 293.491 73.452 291.301 73.0164C289.111 72.5807 287.099 71.5055 285.52 69.9265C283.941 68.3476 282.866 66.3359 282.43 64.1459C281.995 61.9558 282.218 59.6858 283.073 57.6228C283.927 55.5598 285.374 53.7966 287.231 52.556C289.087 51.3154 291.27 50.6533 293.503 50.6533C294.996 50.6466 296.476 50.9365 297.856 51.506C299.236 52.0755 300.49 52.9134 301.544 53.9711C302.598 55.0288 303.431 56.2851 303.996 57.6674C304.561 59.0496 304.845 60.5302 304.833 62.0233L304.793 61.9433Z" fill="#263238"/>
<path id="airplane" opacity="0.2" d="M297.393 260.243C297.17 260.659 297.116 261.145 297.243 261.6C297.37 262.055 297.667 262.443 298.073 262.683C298.565 262.981 299.153 263.075 299.713 262.947C300.273 262.818 300.761 262.476 301.073 261.993L306.343 253.863L306.443 253.683L313.223 252.963L312.533 254.313C312.427 254.511 312.396 254.74 312.446 254.959C312.495 255.177 312.622 255.371 312.803 255.503C312.906 255.575 313.022 255.624 313.145 255.648C313.267 255.672 313.393 255.669 313.515 255.641C313.637 255.613 313.751 255.559 313.851 255.484C313.95 255.408 314.033 255.313 314.093 255.203L315.463 252.733L320.563 252.193L319.563 254.073C319.459 254.275 319.435 254.509 319.496 254.728C319.558 254.947 319.699 255.135 319.893 255.253C319.918 255.36 319.974 255.457 320.054 255.531C320.135 255.605 320.236 255.653 320.345 255.668C320.453 255.684 320.564 255.665 320.662 255.616C320.76 255.567 320.841 255.489 320.893 255.393L322.803 251.953L326.183 251.593C326.805 251.53 327.404 251.33 327.939 251.006C328.473 250.683 328.929 250.245 329.273 249.723L329.833 248.883L319.483 247.803C319.483 247.803 312.773 247.193 311.723 243.893L316.893 234.233L316.943 234.103L324.113 233.323L325.683 231.243L318.813 229.553L319.283 228.423C319.293 228.4 319.295 228.373 319.288 228.349C319.28 228.324 319.265 228.303 319.243 228.288C319.222 228.274 319.196 228.268 319.17 228.271C319.145 228.273 319.121 228.285 319.103 228.303L318.103 229.303L313.343 223.813L311.983 226.343L314.853 232.553L314.673 232.733L309.083 241.023C308.033 241.903 306.083 243.023 304.463 241.183C302.003 238.513 295.533 228.103 295.533 228.103L294.893 229.693C294.483 230.734 294.483 231.892 294.893 232.933L296.033 235.933L294.483 238.823C294.377 239.021 294.346 239.25 294.396 239.469C294.445 239.687 294.572 239.881 294.753 240.013C294.857 240.083 294.975 240.131 295.099 240.153C295.222 240.175 295.349 240.172 295.471 240.143C295.593 240.114 295.708 240.059 295.808 239.984C295.908 239.908 295.992 239.813 296.053 239.703L296.853 238.263L298.533 242.653L297.053 245.533C296.945 245.733 296.914 245.965 296.966 246.186C297.018 246.407 297.148 246.602 297.333 246.733C297.437 246.803 297.554 246.85 297.676 246.873C297.799 246.895 297.925 246.891 298.046 246.862C298.168 246.833 298.282 246.779 298.381 246.703C298.48 246.628 298.563 246.532 298.623 246.423L299.483 245.023L302.043 251.693L297.393 260.243Z" fill="#263238"/>
<g id="youtube">
<path id="Vector_3" opacity="0.2" d="M110.553 36.7533H63.1332V65.2733H110.553V36.7533Z" fill="#263238"/>
<path id="Vector_4" d="M86.1232 58.9733C90.779 58.9733 94.5532 55.1991 94.5532 50.5433C94.5532 45.8875 90.779 42.1133 86.1232 42.1133C81.4675 42.1133 77.6932 45.8875 77.6932 50.5433C77.6932 55.1991 81.4675 58.9733 86.1232 58.9733Z" fill="white"/>
<path id="playbutton" opacity="0.2" d="M92.2432 50.5433L82.9732 45.1933V55.8933L92.2432 50.5433Z" fill="#263238"/>
</g>
<path id="music" opacity="0.2" d="M53.1032 227.663V250.023C52.1793 249.535 51.1483 249.284 50.1032 249.293C47.2032 249.293 44.8632 251.103 44.8632 253.293C44.8632 255.483 47.2032 257.343 50.1032 257.343C54.9832 257.343 55.3432 254.003 55.3432 254.003V234.363L69.2632 232.363V247.363C68.3368 246.883 67.3069 246.635 66.2632 246.643C63.3632 246.643 61.0232 248.453 61.0232 250.693C61.0232 252.933 63.3632 254.693 66.2632 254.693C68.8332 254.693 70.9732 253.243 71.4032 251.353L71.4832 232.023V225.023L53.1032 227.663Z" fill="#263238"/>
<path id="dumbbell" opacity="0.2" d="M204.533 24.0233V21.4333C204.533 21.0063 204.364 20.5968 204.062 20.2949C203.76 19.9929 203.35 19.8233 202.923 19.8233H200.193C199.766 19.8233 199.357 19.9929 199.055 20.2949C198.753 20.5968 198.583 21.0063 198.583 21.4333V30.8033H171.583V21.4333C171.583 21.0063 171.414 20.5968 171.112 20.2949C170.81 19.9929 170.4 19.8233 169.973 19.8233H167.063C166.641 19.8312 166.24 20.0043 165.944 20.3053C165.649 20.6064 165.483 21.0115 165.483 21.4333V24.0233H161.193C160.708 24.0233 160.242 24.2161 159.899 24.5593C159.556 24.9025 159.363 25.368 159.363 25.8533V38.0233C159.363 38.5096 159.556 38.9761 159.899 39.3209C160.242 39.6656 160.707 39.8607 161.193 39.8633H165.483V42.4233C165.486 42.8417 165.651 43.2427 165.944 43.5414C166.237 43.8401 166.635 44.0129 167.053 44.0233H169.963C170.39 44.0233 170.8 43.8537 171.102 43.5517C171.404 43.2498 171.573 42.8403 171.573 42.4133V35.0233H198.573V42.3633C198.566 42.5797 198.603 42.7953 198.682 42.9971C198.761 43.1989 198.879 43.3828 199.03 43.5378C199.181 43.6928 199.362 43.8157 199.562 43.8991C199.762 43.9825 199.977 44.0247 200.193 44.0233H202.923C203.35 44.0233 203.76 43.8537 204.062 43.5517C204.364 43.2498 204.533 42.8403 204.533 42.4133V39.8233H208.653C209.133 39.8208 209.592 39.6313 209.934 39.2951C210.276 38.9589 210.473 38.5026 210.483 38.0233V25.8333C210.478 25.3514 210.283 24.8911 209.94 24.5522C209.598 24.2133 209.135 24.0233 208.653 24.0233H204.533Z" fill="#263238"/>
</g>
<g id="Clock">
<path id="clockborder" opacity="0.2" d="M185.07 276.51C246.44 276.51 296.19 226.76 296.19 165.39C296.19 104.02 246.44 54.27 185.07 54.27C123.7 54.27 73.95 104.02 73.95 165.39C73.95 226.76 123.7 276.51 185.07 276.51Z" fill="#263238"/>
<path id="clockface" d="M185.07 267.79C241.624 267.79 287.47 221.944 287.47 165.39C287.47 108.836 241.624 62.99 185.07 62.99C128.516 62.99 82.67 108.836 82.67 165.39C82.67 221.944 128.516 267.79 185.07 267.79Z" fill="#92E3A9" stroke="#263238" stroke-miterlimit="10"/>
<g id="clockhandminute" opacity="0.2">
<path id="Vector_5" opacity="0.2" d="M185.057 168.68C184.611 168.683 184.168 168.596 183.756 168.424C183.343 168.252 182.97 167.999 182.657 167.68L118.247 101.53C117.659 100.888 117.344 100.041 117.369 99.1709C117.394 98.3004 117.758 97.4738 118.382 96.8665C119.006 96.2592 119.842 95.9188 120.713 95.9176C121.584 95.9164 122.421 96.2544 123.047 96.8599L187.467 162.96C187.928 163.432 188.239 164.029 188.362 164.677C188.484 165.325 188.413 165.994 188.157 166.602C187.9 167.209 187.471 167.728 186.921 168.092C186.371 168.456 185.727 168.65 185.067 168.65L185.057 168.68Z" fill="#263238"/>
</g>
<path id="clockhandhour" opacity="0.2" d="M156.18 188.07C155.459 188.073 154.757 187.844 154.176 187.417C153.596 186.989 153.17 186.386 152.96 185.696C152.75 185.007 152.768 184.268 153.011 183.589C153.254 182.911 153.71 182.329 154.31 181.93L183.21 162.6C183.949 162.132 184.841 161.972 185.696 162.153C186.552 162.334 187.302 162.843 187.788 163.57C188.273 164.297 188.456 165.185 188.295 166.045C188.135 166.904 187.645 167.667 186.93 168.17L158.04 187.5C157.49 187.869 156.843 188.068 156.18 188.07V188.07Z" fill="#263238"/>
<path id="clockcenter" d="M189.22 165.39C189.222 164.569 188.98 163.765 188.525 163.082C188.071 162.398 187.423 161.864 186.665 161.549C185.907 161.233 185.072 161.15 184.267 161.309C183.461 161.468 182.72 161.862 182.139 162.442C181.558 163.022 181.161 163.761 181.001 164.567C180.84 165.372 180.921 166.207 181.235 166.966C181.549 167.725 182.081 168.373 182.763 168.83C183.446 169.286 184.249 169.53 185.07 169.53C186.169 169.53 187.223 169.094 188.001 168.318C188.779 167.542 189.217 166.489 189.22 165.39V165.39Z" fill="#263238" stroke="#263238" stroke-miterlimit="10" stroke-linecap="round"/>
<g id="clocknumbers">
<path id="Vector_6" d="M185.15 72.15V85.99" stroke="#263238" stroke-width="2" stroke-miterlimit="10" stroke-linecap="round"/>
<path id="Vector_7" d="M185.15 243.71V257.55" stroke="#263238" stroke-width="2" stroke-miterlimit="10" stroke-linecap="round"/>
<path id="Vector_8" d="M277.85 164.85H264" stroke="#263238" stroke-width="2" stroke-miterlimit="10" stroke-linecap="round"/>
<path id="Vector_9" d="M106.29 164.85H92.45" stroke="#263238" stroke-width="2" stroke-miterlimit="10" stroke-linecap="round"/>
<path id="Vector_10" d="M233.76 85.92L226.5 97.71" stroke="#263238" stroke-width="2" stroke-miterlimit="10" stroke-linecap="round"/>
<path id="Vector_11" d="M143.79 231.99L136.53 243.78" stroke="#263238" stroke-width="2" stroke-miterlimit="10" stroke-linecap="round"/>
<path id="Vector_12" d="M266.7 120.78L254.52 127.36" stroke="#263238" stroke-width="2" stroke-miterlimit="10" stroke-linecap="round"/>
<path id="Vector_13" d="M115.77 202.34L103.59 208.92" stroke="#263238" stroke-width="2" stroke-miterlimit="10" stroke-linecap="round"/>
<path id="Vector_14" d="M264.08 213.47L252.29 206.2" stroke="#263238" stroke-width="2" stroke-miterlimit="10" stroke-linecap="round"/>
<path id="Vector_15" d="M118.01 123.5L106.22 116.24" stroke="#263238" stroke-width="2" stroke-miterlimit="10" stroke-linecap="round"/>
<path id="Vector_16" d="M229.22 246.41L222.64 234.22" stroke="#263238" stroke-width="2" stroke-miterlimit="10" stroke-linecap="round"/>
<path id="Vector_17" d="M147.66 95.48L141.08 83.3" stroke="#263238" stroke-width="2" stroke-miterlimit="10" stroke-linecap="round"/>
</g>
</g>
<g id="Character">
<path id="Vector_18" d="M204.363 251.373C204.253 249.153 204.363 245.733 204.453 243.763C204.719 242.17 204.853 240.558 204.853 238.943C204.853 217.503 196.583 215.703 186.363 215.703C176.143 215.703 167.873 219.143 167.873 238.943C167.873 239.463 167.873 239.943 167.923 240.493C168.013 241.353 168.853 249.573 168.083 252.673C167.263 255.943 160.713 256.603 156.953 264.453C153.193 272.303 161.373 283.763 188.043 285.233C214.713 286.703 217.483 268.883 217.483 262.833C217.483 256.783 204.533 254.643 204.363 251.373Z" fill="#263238"/>
<path id="Vector_19" d="M167.223 240.573L167.883 240.503V240.413L167.223 240.573Z" fill="#263238"/>
<path id="Vector_20" d="M170.983 270.023C170.983 270.023 160.193 270.613 156.363 272.763C152.533 274.913 151.813 287.603 151.813 287.603L140.333 312.243C140.333 312.243 109.463 290.713 106.833 288.563C104.203 286.413 103.483 284.733 100.833 283.053C98.1832 281.373 97.2432 281.383 93.8932 281.383C90.5432 281.383 90.0632 281.863 90.3032 282.813C90.5432 283.763 91.7432 284.013 92.6932 284.013C93.7435 284.097 94.7863 284.258 95.8132 284.493L86.2332 288.323C83.8432 289.273 84.3232 285.443 82.1732 285.443C80.0232 285.443 80.2532 290.953 83.8432 293.583C87.4332 296.213 89.8432 295.493 92.6932 295.253C95.5432 295.013 102.273 294.063 102.273 294.063C102.273 294.063 120.693 310.333 127.393 316.313C134.093 322.293 143.183 328.033 146.533 325.643C149.883 323.253 162.533 299.803 162.533 299.803L170.663 278.273C170.663 278.273 172.933 273.753 170.983 270.023Z" fill="white"/>
<g id="Group">
<path id="Vector_21" opacity="0.1" d="M170.983 270.023C170.983 270.023 160.193 270.613 156.363 272.763C152.533 274.913 151.813 287.603 151.813 287.603L140.333 312.243C140.333 312.243 109.463 290.713 106.833 288.563C104.203 286.413 103.483 284.733 100.833 283.053C98.1832 281.373 97.2432 281.383 93.8932 281.383C90.5432 281.383 90.0632 281.863 90.3032 282.813C90.5432 283.763 91.7432 284.013 92.6932 284.013C93.7435 284.097 94.7863 284.258 95.8132 284.493L86.2332 288.323C83.8432 289.273 84.3232 285.443 82.1732 285.443C80.0232 285.443 80.2532 290.953 83.8432 293.583C87.4332 296.213 89.8432 295.493 92.6932 295.253C95.5432 295.013 102.273 294.063 102.273 294.063C102.273 294.063 120.693 310.333 127.393 316.313C134.093 322.293 143.183 328.033 146.533 325.643C149.883 323.253 162.533 299.803 162.533 299.803L170.663 278.273C170.663 278.273 172.933 273.753 170.983 270.023Z" fill="black"/>
</g>
<path id="Vector_22" d="M170.983 270.023C170.983 270.023 160.193 270.613 156.363 272.763C152.533 274.913 151.813 287.603 151.813 287.603L140.333 312.243C140.333 312.243 109.463 290.713 106.833 288.563C104.203 286.413 103.483 284.733 100.833 283.053C98.1832 281.373 97.2432 281.383 93.8932 281.383C90.5432 281.383 90.0632 281.863 90.3032 282.813C90.5432 283.763 91.7432 284.013 92.6932 284.013C93.7435 284.097 94.7863 284.258 95.8132 284.493L86.2332 288.323C83.8432 289.273 84.3232 285.443 82.1732 285.443C80.0232 285.443 80.2532 290.953 83.8432 293.583C87.4332 296.213 89.8432 295.493 92.6932 295.253C95.5432 295.013 102.273 294.063 102.273 294.063C102.273 294.063 120.693 310.333 127.393 316.313C134.093 322.293 143.183 328.033 146.533 325.643C149.883 323.253 162.533 299.803 162.533 299.803L170.663 278.273C170.663 278.273 172.933 273.753 170.983 270.023Z" stroke="#263238" stroke-miterlimit="10" stroke-linecap="round"/>
<path id="Vector_23" d="M84.5332 294.113C84.5332 294.113 79.8732 290.333 82.3832 286.633C83.0032 285.713 84.3832 287.103 84.7832 289.633C85.1832 292.163 86.4432 293.143 87.0932 293.323" fill="white"/>
<g id="Group_2">
<path id="Vector_24" opacity="0.1" d="M84.5332 294.113C84.5332 294.113 79.8732 290.333 82.3832 286.633C83.0032 285.713 84.3832 287.103 84.7832 289.633C85.1832 292.163 86.4432 293.143 87.0932 293.323" fill="black"/>
</g>
<path id="Vector_25" d="M84.5332 294.113C84.5332 294.113 79.8732 290.333 82.3832 286.633C83.0032 285.713 84.3832 287.103 84.7832 289.633C85.1832 292.163 86.4432 293.143 87.0932 293.323" stroke="#263238" stroke-miterlimit="10" stroke-linecap="round"/>
<path id="Vector_26" d="M88.0132 293.283C86.9032 293.283 86.9632 290.283 84.8732 288.853C83.2132 287.683 83.4232 289.983 83.8132 291.853C83.9658 292.62 84.3462 293.324 84.9045 293.871C85.4629 294.419 86.1733 294.786 86.9432 294.923V294.923C87.6594 295.103 88.4047 295.133 89.1332 295.013" fill="white"/>
<g id="Group_3">
<path id="Vector_27" opacity="0.1" d="M88.0132 293.283C86.9032 293.283 86.9632 290.283 84.8732 288.853C83.2132 287.683 83.4232 289.983 83.8132 291.853C83.9658 292.62 84.3462 293.324 84.9045 293.871C85.4629 294.419 86.1733 294.786 86.9432 294.923V294.923C87.6594 295.103 88.4047 295.133 89.1332 295.013" fill="black"/>
</g>
<path id="Vector_28" d="M88.0132 293.283C86.9032 293.283 86.9632 290.283 84.8732 288.853C83.2132 287.683 83.4232 289.983 83.8132 291.853C83.9658 292.62 84.3462 293.324 84.9045 293.871C85.4629 294.419 86.1733 294.786 86.9432 294.923V294.923C87.6594 295.103 88.4047 295.133 89.1332 295.013" stroke="#263238" stroke-miterlimit="10" stroke-linecap="round"/>
<path id="Vector_29" d="M102.053 288.393C102.053 288.393 100.483 287.283 97.4332 288.303C94.3832 289.323 90.7832 293.753 89.9532 293.383C89.1768 292.939 88.5873 292.228 88.2932 291.383C87.8232 290.463 86.9132 289.133 86.2932 290.203C84.9132 292.543 88.6732 295.203 88.6732 295.203C88.6732 295.203 89.1932 295.643 92.1032 295.293C95.0132 294.943 101.583 294.023 101.583 294.023" fill="white"/>
<g id="Group_4">
<path id="Vector_30" opacity="0.1" d="M102.053 288.393C102.053 288.393 100.483 287.283 97.4332 288.303C94.3832 289.323 90.7832 293.753 89.9532 293.383C89.1768 292.939 88.5873 292.228 88.2932 291.383C87.8232 290.463 86.9132 289.133 86.2932 290.203C84.9132 292.543 88.6732 295.203 88.6732 295.203C88.6732 295.203 89.1932 295.643 92.1032 295.293C95.0132 294.943 101.583 294.023 101.583 294.023" fill="black"/>
</g>
<path id="Vector_31" d="M102.053 288.393C102.053 288.393 100.483 287.283 97.4332 288.303C94.3832 289.323 90.7832 293.753 89.9532 293.383C89.1768 292.939 88.5873 292.228 88.2932 291.383C87.8232 290.463 86.9132 289.133 86.2932 290.203C84.9132 292.543 88.6732 295.203 88.6732 295.203C88.6732 295.203 89.1932 295.643 92.1032 295.293C95.0132 294.943 101.583 294.023 101.583 294.023" stroke="#263238" stroke-miterlimit="10" stroke-linecap="round"/>
<path id="Vector_32" d="M162.713 294.673L159.223 284.683" stroke="#263238" stroke-miterlimit="10" stroke-linecap="round"/>
<path id="Vector_33" d="M198.993 269.803C198.993 269.803 210.363 270.613 214.193 272.803C218.023 274.993 218.743 287.643 218.743 287.643L230.223 312.283C230.223 312.283 261.093 290.753 263.723 288.603C266.353 286.453 267.073 284.773 269.723 283.093C272.373 281.413 273.313 281.423 276.663 281.423C280.013 281.423 280.493 281.903 280.253 282.853C280.013 283.803 278.813 284.053 277.853 284.053C276.806 284.138 275.767 284.298 274.743 284.533L284.313 288.363C286.713 289.313 286.233 285.483 288.383 285.483C290.533 285.483 290.303 290.993 286.713 293.623C283.123 296.253 280.713 295.533 277.853 295.293C274.993 295.053 268.283 294.103 268.283 294.103C268.283 294.103 249.863 310.373 243.163 316.353C236.463 322.333 227.373 328.073 224.023 325.683C220.673 323.293 208.023 299.843 208.023 299.843L199.893 278.313C199.893 278.313 197.053 273.533 198.993 269.803Z" fill="white"/>
<g id="Group_5">
<path id="Vector_34" opacity="0.1" d="M198.993 269.803C198.993 269.803 210.363 270.613 214.193 272.803C218.023 274.993 218.743 287.643 218.743 287.643L230.223 312.283C230.223 312.283 261.093 290.753 263.723 288.603C266.353 286.453 267.073 284.773 269.723 283.093C272.373 281.413 273.313 281.423 276.663 281.423C280.013 281.423 280.493 281.903 280.253 282.853C280.013 283.803 278.813 284.053 277.853 284.053C276.806 284.138 275.767 284.298 274.743 284.533L284.313 288.363C286.713 289.313 286.233 285.483 288.383 285.483C290.533 285.483 290.303 290.993 286.713 293.623C283.123 296.253 280.713 295.533 277.853 295.293C274.993 295.053 268.283 294.103 268.283 294.103C268.283 294.103 249.863 310.373 243.163 316.353C236.463 322.333 227.373 328.073 224.023 325.683C220.673 323.293 208.023 299.843 208.023 299.843L199.893 278.313C199.893 278.313 197.053 273.533 198.993 269.803Z" fill="black"/>
</g>
<path id="Vector_35" d="M198.993 269.803C198.993 269.803 210.363 270.613 214.193 272.803C218.023 274.993 218.743 287.643 218.743 287.643L230.223 312.283C230.223 312.283 261.093 290.753 263.723 288.603C266.353 286.453 267.073 284.773 269.723 283.093C272.373 281.413 273.313 281.423 276.663 281.423C280.013 281.423 280.493 281.903 280.253 282.853C280.013 283.803 278.813 284.053 277.853 284.053C276.806 284.138 275.767 284.298 274.743 284.533L284.313 288.363C286.713 289.313 286.233 285.483 288.383 285.483C290.533 285.483 290.303 290.993 286.713 293.623C283.123 296.253 280.713 295.533 277.853 295.293C274.993 295.053 268.283 294.103 268.283 294.103C268.283 294.103 249.863 310.373 243.163 316.353C236.463 322.333 227.373 328.073 224.023 325.683C220.673 323.293 208.023 299.843 208.023 299.843L199.893 278.313C199.893 278.313 197.053 273.533 198.993 269.803Z" stroke="#263238" stroke-miterlimit="10" stroke-linecap="round"/>
<path id="Vector_36" d="M208.023 292.583L210.803 284.453" stroke="#263238" stroke-miterlimit="10" stroke-linecap="round"/>
<path id="Vector_37" d="M287.173 292.753C287.173 292.753 289.173 287.103 288.173 286.633C287.173 286.163 286.173 287.103 285.773 289.633C285.373 292.163 284.113 293.143 283.463 293.323" fill="white"/>
<g id="Group_6">
<path id="Vector_38" opacity="0.1" d="M288.543 291.533C288.543 291.533 289.193 287.103 288.173 286.633C287.153 286.163 286.173 287.103 285.773 289.633C285.373 292.163 284.113 293.143 283.463 293.323" fill="black"/>
</g>
<path id="Vector_39" d="M287.173 292.753C287.173 292.753 289.173 287.103 288.173 286.633C287.173 286.163 286.173 287.103 285.773 289.633C285.373 292.163 284.113 293.143 283.463 293.323" stroke="#263238" stroke-miterlimit="10" stroke-linecap="round"/>
<path id="Vector_40" d="M285.653 293.763C285.653 293.763 288.173 286.633 285.253 288.523C283.103 289.913 283.653 293.283 282.543 293.283" fill="white"/>
<g id="Group_7">
<path id="Vector_41" opacity="0.1" d="M286.233 293.843C286.233 293.843 288.173 286.633 285.233 288.523C283.083 289.913 283.633 293.283 282.523 293.283" fill="black"/>
</g>
<path id="Vector_42" d="M285.653 293.763C285.653 293.763 288.173 286.633 285.253 288.523C283.103 289.913 283.653 293.283 282.543 293.283" stroke="#263238" stroke-miterlimit="10" stroke-linecap="round"/>
<path id="Vector_43" d="M268.483 288.393C268.483 288.393 270.053 287.283 273.103 288.303C276.153 289.323 279.753 293.753 280.583 293.383C281.36 292.939 281.949 292.228 282.243 291.383C282.703 290.463 283.543 289.913 284.093 291.013C284.643 292.113 282.983 295.363 282.983 295.363C282.983 295.363 281.983 296.073 279.533 295.503C276.767 294.838 273.956 294.373 271.123 294.113" fill="white"/>
<g id="Group_8">
<path id="Vector_44" opacity="0.1" d="M268.483 288.393C268.483 288.393 270.053 287.283 273.103 288.303C276.153 289.323 279.753 293.753 280.583 293.383C281.36 292.939 281.949 292.228 282.243 291.383C282.703 290.463 283.543 289.913 284.093 291.013C284.643 292.113 282.983 295.363 282.983 295.363C282.983 295.363 281.983 296.073 279.533 295.503C277.083 294.933 270.463 293.173 268.953 293.173" fill="black"/>
</g>
<path id="Vector_45" d="M268.483 288.393C268.483 288.393 270.053 287.283 273.103 288.303C276.153 289.323 279.753 293.753 280.583 293.383C281.36 292.939 281.949 292.228 282.243 291.383C282.703 290.463 283.543 289.913 284.093 291.013C284.643 292.113 282.983 295.363 282.983 295.363C282.983 295.363 281.983 296.073 279.533 295.503C276.767 294.838 273.956 294.373 271.123 294.113" stroke="#263238" stroke-miterlimit="10" stroke-linecap="round"/>
<path id="Vector_46" d="M180.803 255.463C180.803 255.463 180.313 261.033 178.023 264.793C175.733 268.553 171.023 270.023 171.023 270.023L161.703 298.663L166.573 318.023C166.573 318.023 157.893 331.223 154.483 339.243C151.073 347.263 155.173 356.333 158.773 360.093C162.373 363.853 167.153 368.953 179.353 368.473C196.353 367.803 208.353 369.353 213.803 362.973C219.253 356.593 219.803 344.543 213.323 335.453C209.403 329.923 204.053 317.973 204.053 317.973L209.353 298.023L201.233 270.023C201.233 270.023 196.343 269.743 193.403 266.143C190.463 262.543 191.113 255.993 191.113 255.993L180.803 255.463Z" fill="white"/>
<g id="Group_9">
<path id="Vector_47" opacity="0.1" d="M180.803 255.463C180.803 255.463 180.313 261.033 178.023 264.793C175.733 268.553 171.023 270.023 171.023 270.023L161.703 298.663L166.573 318.023C166.573 318.023 157.893 331.223 154.483 339.243C151.073 347.263 155.173 356.333 158.773 360.093C162.373 363.853 167.153 368.953 179.353 368.473C196.353 367.803 208.353 369.353 213.803 362.973C219.253 356.593 219.803 344.543 213.323 335.453C209.403 329.923 204.053 317.973 204.053 317.973L209.353 298.023L201.233 270.023C201.233 270.023 196.343 269.743 193.403 266.143C190.463 262.543 191.113 255.993 191.113 255.993L180.803 255.463Z" fill="black"/>
</g>
<path id="Vector_48" d="M180.803 255.463C180.803 255.463 180.313 261.033 178.023 264.793C175.733 268.553 171.023 270.023 171.023 270.023L161.703 298.663L166.573 318.023C166.573 318.023 157.893 331.223 154.483 339.243C151.073 347.263 155.173 356.333 158.773 360.093C162.373 363.853 167.153 368.953 179.353 368.473C196.353 367.803 208.353 369.353 213.803 362.973C219.253 356.593 219.803 344.543 213.323 335.453C209.403 329.923 204.053 317.973 204.053 317.973L209.353 298.023L201.233 270.023C201.233 270.023 196.343 269.743 193.403 266.143C190.463 262.543 191.113 255.993 191.113 255.993L180.803 255.463Z" stroke="#263238" stroke-miterlimit="10" stroke-linecap="round"/>
<path id="Vector_49" d="M209.353 298.023L201.233 270.023C200.419 269.966 199.612 269.832 198.823 269.623C199.763 276.133 198.643 279.393 198.643 279.393C198.482 280.822 197.982 282.191 197.183 283.386C196.385 284.581 195.311 285.568 194.053 286.263C189.643 288.883 181.293 289.373 176.053 285.123C172.053 281.913 172.803 273.123 173.393 268.993C172.622 269.407 171.815 269.751 170.983 270.023L161.663 298.663L166.573 318.023H204.033L209.353 298.023Z" fill="#263238" stroke="#263238" stroke-miterlimit="10" stroke-linecap="round"/>
<path id="Vector_50" d="M172.873 242.473C172.873 242.473 169.873 238.553 168.813 241.473C167.753 244.393 173.023 246.983 173.023 246.983L172.873 242.473Z" fill="white"/>
<g id="Group_10">
<path id="Vector_51" opacity="0.1" d="M172.873 242.473C172.873 242.473 169.873 238.553 168.813 241.473C167.753 244.393 173.023 246.983 173.023 246.983L172.873 242.473Z" fill="black"/>
</g>
<path id="Vector_52" d="M172.873 242.473C172.873 242.473 169.873 238.553 168.813 241.473C167.753 244.393 173.023 246.983 173.023 246.983L172.873 242.473Z" stroke="#263238" stroke-miterlimit="10" stroke-linecap="round"/>
<path id="Vector_53" d="M199.403 242.473C199.403 242.473 202.453 238.553 203.463 241.473C204.473 244.393 199.263 246.983 199.263 246.983L199.403 242.473Z" fill="white"/>
<g id="Group_11">
<path id="Vector_54" opacity="0.1" d="M199.403 242.473C199.403 242.473 202.453 238.553 203.463 241.473C204.473 244.393 199.263 246.983 199.263 246.983L199.403 242.473Z" fill="black"/>
</g>
<path id="Vector_55" d="M199.403 242.473C199.403 242.473 202.453 238.553 203.463 241.473C204.473 244.393 199.263 246.983 199.263 246.983L199.403 242.473Z" stroke="#263238" stroke-miterlimit="10" stroke-linecap="round"/>
<path id="Vector_56" d="M186.273 259.373C182.783 259.373 179.436 257.987 176.968 255.519C174.5 253.051 173.113 249.704 173.113 246.213V226.023C173.112 225.379 173.238 224.741 173.483 224.145C173.729 223.549 174.09 223.008 174.545 222.552C175 222.096 175.541 221.734 176.136 221.487C176.731 221.24 177.369 221.113 178.013 221.113H194.483C195.136 221.101 195.784 221.22 196.39 221.461C196.996 221.702 197.548 222.062 198.013 222.519C198.479 222.976 198.849 223.522 199.101 224.123C199.353 224.725 199.483 225.371 199.483 226.023V246.243C199.478 247.973 199.132 249.684 198.465 251.28C197.799 252.876 196.824 254.325 195.598 255.544C194.371 256.763 192.916 257.729 191.316 258.386C189.716 259.043 188.003 259.379 186.273 259.373V259.373Z" fill="white"/>
<g id="Group_12">
<path id="Vector_57" opacity="0.1" d="M186.273 259.373C182.783 259.373 179.436 257.987 176.968 255.519C174.5 253.051 173.113 249.704 173.113 246.213V226.023C173.112 225.379 173.238 224.741 173.483 224.145C173.729 223.549 174.09 223.008 174.545 222.552C175 222.096 175.541 221.734 176.136 221.487C176.731 221.24 177.369 221.113 178.013 221.113H194.483C195.136 221.101 195.784 221.22 196.39 221.461C196.996 221.702 197.548 222.062 198.013 222.519C198.479 222.976 198.849 223.522 199.101 224.123C199.353 224.725 199.483 225.371 199.483 226.023V246.243C199.478 247.973 199.132 249.684 198.465 251.28C197.799 252.876 196.824 254.325 195.598 255.544C194.371 256.763 192.916 257.729 191.316 258.386C189.716 259.043 188.003 259.379 186.273 259.373V259.373Z" fill="black"/>
</g>
<path id="Vector_58" d="M186.273 259.373C182.783 259.373 179.436 257.987 176.968 255.519C174.5 253.051 173.113 249.704 173.113 246.213V226.023C173.112 225.379 173.238 224.741 173.483 224.145C173.729 223.549 174.09 223.008 174.545 222.552C175 222.096 175.541 221.734 176.136 221.487C176.731 221.24 177.369 221.113 178.013 221.113H194.483C195.136 221.101 195.784 221.22 196.39 221.461C196.996 221.702 197.548 222.062 198.013 222.519C198.479 222.976 198.849 223.522 199.101 224.123C199.353 224.725 199.483 225.371 199.483 226.023V246.243C199.478 247.973 199.132 249.684 198.465 251.28C197.799 252.876 196.824 254.325 195.598 255.544C194.371 256.763 192.916 257.729 191.316 258.386C189.716 259.043 188.003 259.379 186.273 259.373V259.373Z" stroke="#263238" stroke-miterlimit="10" stroke-linecap="round"/>
<path id="Vector_59" d="M176.483 237.253C177.386 237.852 178.445 238.171 179.528 238.171C180.611 238.171 181.67 237.852 182.573 237.253" stroke="#263238" stroke-miterlimit="10" stroke-linecap="round"/>
<path id="Vector_60" d="M190.123 237.253C191.024 237.852 192.082 238.172 193.163 238.172C194.245 238.172 195.302 237.852 196.203 237.253" stroke="#263238" stroke-miterlimit="10" stroke-linecap="round"/>
<path id="Vector_61" d="M187.513 235.083L188.383 243.483H184.903" stroke="#263238" stroke-miterlimit="10" stroke-linecap="round"/>
<path id="Vector_62" d="M185.043 248.263H188.523" stroke="#263238" stroke-miterlimit="10" stroke-linecap="round"/>
<path id="Vector_63" d="M186.403 221.083H178.013C177.369 221.083 176.731 221.21 176.136 221.457C175.541 221.704 175 222.066 174.545 222.522C174.09 222.978 173.729 223.519 173.483 224.115C173.238 224.711 173.112 225.349 173.113 225.993V235.993C178.483 231.323 184.733 223.293 186.403 221.083Z" fill="#263238" stroke="#263238" stroke-miterlimit="10"/>
<path id="Vector_64" d="M199.483 236.373V226.023C199.483 224.721 198.966 223.472 198.045 222.551C197.124 221.631 195.875 221.113 194.573 221.113H187.063C188.793 226.593 195.483 233.023 199.483 236.373Z" fill="#263238" stroke="#263238" stroke-miterlimit="10"/>
<path id="Vector_65" d="M175.913 233.343C175.913 233.343 177.483 230.583 182.483 231.023" stroke="#263238" stroke-width="2" stroke-miterlimit="10" stroke-linecap="round"/>
<path id="Vector_66" d="M189.103 231.023C190.433 230.469 191.915 230.397 193.292 230.821C194.67 231.245 195.855 232.137 196.643 233.343" stroke="#263238" stroke-width="2" stroke-miterlimit="10" stroke-linecap="round"/>
<path id="Vector_67" d="M154.483 339.243C151.043 347.243 155.173 356.333 158.773 360.093C162.373 363.853 167.153 368.953 179.353 368.473C196.353 367.803 208.353 369.353 213.803 362.973C219.253 356.593 219.803 344.543 213.323 335.453C211.858 333.301 210.522 331.064 209.323 328.753H159.933C157.919 332.144 156.1 335.646 154.483 339.243V339.243Z" fill="#263238" stroke="#263238" stroke-miterlimit="10" stroke-linecap="round"/>
<g id="Vector_68">
<path d="M181.243 355.473C172.633 346.543 157.003 342.073 149.343 340.793C141.683 339.513 127.653 331.793 127.653 331.793C127.653 331.793 119.353 331.513 119.993 341.403C120.633 351.293 144.553 362.783 153.813 367.883C157.973 370.23 162.634 371.545 167.407 371.719C172.179 371.893 176.924 370.921 181.243 368.883" fill="#263238"/>
<path d="M181.243 355.473C172.633 346.543 157.003 342.073 149.343 340.793C141.683 339.513 127.653 331.793 127.653 331.793C127.653 331.793 119.353 331.513 119.993 341.403C120.633 351.293 144.553 362.783 153.813 367.883C157.973 370.23 162.634 371.545 167.407 371.719C172.179 371.893 176.924 370.921 181.243 368.883" stroke="#263238" stroke-miterlimit="10" stroke-linecap="round"/>
</g>
<g id="Vector_69">
<path d="M186.633 355.793C195.243 346.863 210.873 342.393 218.533 341.113C226.193 339.833 238.103 333.313 238.103 333.313C238.103 333.313 248.523 331.863 247.883 341.753C247.243 351.643 223.323 363.123 214.063 368.233C209.903 370.578 205.242 371.892 200.47 372.066C195.698 372.24 190.953 371.268 186.633 369.233" fill="#263238"/>
<path d="M186.633 355.793C195.243 346.863 210.873 342.393 218.533 341.113C226.193 339.833 238.103 333.313 238.103 333.313C238.103 333.313 248.523 331.863 247.883 341.753C247.243 351.643 223.323 363.123 214.063 368.233C209.903 370.578 205.242 371.892 200.47 372.066C195.698 372.24 190.953 371.268 186.633 369.233" stroke="#263238" stroke-miterlimit="10" stroke-linecap="round"/>
</g>
<path id="Vector_70" d="M222.573 371.403C222.573 371.403 223.753 370.623 223.163 368.653C222.573 366.683 219.423 368.253 217.253 368.253C215.083 368.253 206.813 367.463 202.883 367.073C199.513 366.733 194.003 366.833 192.473 366.863C192.695 369.286 192.198 371.721 191.043 373.863L191.813 373.943C198.513 374.603 201.423 374.733 203.473 375.163C207.213 375.953 211.343 379.103 215.473 378.913C219.603 378.723 223.353 375.913 223.353 374.183C223.394 373.197 223.121 372.224 222.573 371.403V371.403Z" fill="white"/>
<g id="Group_13">
<path id="Vector_71" opacity="0.1" d="M222.573 371.403C222.573 371.403 223.753 370.623 223.163 368.653C222.573 366.683 219.423 368.253 217.253 368.253C215.083 368.253 206.813 367.463 202.883 367.073C199.513 366.733 194.003 366.833 192.473 366.863C192.695 369.286 192.198 371.721 191.043 373.863L191.813 373.943C198.513 374.603 201.423 374.733 203.473 375.163C207.213 375.953 211.343 379.103 215.473 378.913C219.603 378.723 223.353 375.913 223.353 374.183C223.394 373.197 223.121 372.224 222.573 371.403V371.403Z" fill="black"/>
</g>
<path id="Vector_72" d="M222.573 371.403C222.573 371.403 223.753 370.623 223.163 368.653C222.573 366.683 219.423 368.253 217.253 368.253C215.083 368.253 206.813 367.463 202.883 367.073C199.513 366.733 194.003 366.833 192.473 366.863C192.695 369.286 192.198 371.721 191.043 373.863L191.813 373.943C198.513 374.603 201.423 374.733 203.473 375.163C207.213 375.953 211.343 379.103 215.473 378.913C219.603 378.723 223.353 375.913 223.353 374.183C223.394 373.197 223.121 372.224 222.573 371.403V371.403Z" stroke="#263238" stroke-miterlimit="10" stroke-linecap="round"/>
<path id="Vector_73" d="M222.573 371.403C221.425 371.598 220.252 371.598 219.103 371.403" stroke="#263238" stroke-miterlimit="10" stroke-linecap="round"/>
<path id="Vector_74" d="M223.363 374.163C221.835 374.281 220.301 374.281 218.773 374.163" stroke="#263238" stroke-miterlimit="10" stroke-linecap="round"/>
<path id="Vector_75" d="M218.003 375.923C219.079 376.525 220.332 376.73 221.543 376.503" stroke="#263238" stroke-miterlimit="10" stroke-linecap="round"/>
<path id="Vector_76" d="M216.483 377.213C217.502 377.703 218.644 377.881 219.763 377.723" stroke="#263238" stroke-miterlimit="10" stroke-linecap="round"/>
<path id="Vector_77" d="M191.043 373.843C192.198 371.701 192.695 369.266 192.473 366.843H192.043C192.043 366.843 176.883 363.723 164.283 356.023C151.683 348.323 135.723 336.533 127.653 331.803C119.583 327.073 111.893 334.163 112.653 341.653C113.413 349.143 119.543 353.073 130.573 357.653C141.603 362.233 161.693 369.273 172.323 371.433C177.833 372.523 184.933 373.273 191.043 373.843Z" fill="#263238" stroke="#263238" stroke-miterlimit="10" stroke-linecap="round"/>
<path id="Vector_78" d="M173.333 375.923C172.182 373.78 171.688 371.345 171.913 368.923H172.333C172.333 368.923 187.493 365.773 200.103 358.093C212.713 350.413 228.653 338.593 236.733 333.863C244.813 329.133 252.483 336.233 251.733 343.713C250.983 351.193 244.843 355.133 233.813 359.663C222.783 364.193 202.703 371.283 192.063 373.453C186.543 374.593 179.483 375.343 173.333 375.923Z" fill="#263238" stroke="#263238" stroke-miterlimit="10" stroke-linecap="round"/>
<path id="Vector_79" d="M171.913 368.943C171.913 368.943 157.323 369.513 152.693 369.193C148.063 368.873 144.553 366.633 143.283 367.753C142.013 368.873 143.603 370.623 143.603 370.623C143.603 370.623 143.123 373.333 144.403 374.773C145.683 376.213 147.403 377.483 152.853 379.083C158.303 380.683 163.853 378.423 166.853 377.623L173.303 375.923C173.303 375.923 171.823 373.633 171.913 368.943Z" fill="white"/>
<g id="Group_14">
<path id="Vector_80" opacity="0.1" d="M171.913 368.943C171.913 368.943 157.323 369.513 152.693 369.193C148.063 368.873 144.553 366.633 143.283 367.753C142.013 368.873 143.603 370.623 143.603 370.623C143.603 370.623 143.123 373.333 144.403 374.773C145.683 376.213 147.403 377.483 152.853 379.083C158.303 380.683 163.853 378.423 166.853 377.623L173.303 375.923C173.303 375.923 171.823 373.633 171.913 368.943Z" fill="black"/>
</g>
<path id="Vector_81" d="M171.913 368.943C171.913 368.943 157.323 369.513 152.693 369.193C148.063 368.873 144.553 366.633 143.283 367.753C142.013 368.873 143.603 370.623 143.603 370.623C143.603 370.623 143.123 373.333 144.403 374.773C145.683 376.213 147.403 377.483 152.853 379.083C158.303 380.683 163.853 378.423 166.853 377.623L173.303 375.923C173.303 375.923 171.823 373.633 171.913 368.943Z" stroke="#263238" stroke-miterlimit="10" stroke-linecap="round"/>
<path id="Vector_82" d="M143.603 370.623C143.933 370.402 144.321 370.284 144.718 370.284C145.115 370.284 145.504 370.402 145.833 370.623C146.597 371.144 147.469 371.486 148.383 371.623" stroke="#263238" stroke-miterlimit="10" stroke-linecap="round"/>
<path id="Vector_83" d="M143.783 373.723C144.038 373.493 144.345 373.329 144.678 373.246C145.011 373.162 145.36 373.161 145.693 373.243C146.455 373.46 147.242 373.575 148.033 373.583" stroke="#263238" stroke-miterlimit="10" stroke-linecap="round"/>
<path id="Vector_84" d="M146.223 376.253C146.223 376.253 146.503 375.443 147.033 375.443C147.563 375.443 149.753 375.733 150.323 375.683" stroke="#263238" stroke-miterlimit="10" stroke-linecap="round"/>
<path id="Vector_85" d="M149.323 377.833C149.323 377.833 149.853 377.113 150.323 377.073C150.927 376.989 151.534 376.939 152.143 376.923" stroke="#263238" stroke-miterlimit="10" stroke-linecap="round"/>
<path id="Vector_86" d="M179.333 368.473C179.333 368.473 209.853 353.473 222.183 344.943" stroke="white" stroke-miterlimit="10" stroke-linecap="round"/>
<path id="Vector_87" d="M144.883 343.023C144.883 343.023 170.963 363.413 185.663 364.833" stroke="white" stroke-miterlimit="10" stroke-linecap="round"/>
<path id="Vector_88" d="M157.093 342.473C157.093 342.473 176.933 348.623 182.093 356.563" stroke="white" stroke-miterlimit="10" stroke-linecap="round"/>
<path id="Vector_89" d="M189.043 353.783C189.043 353.783 201.343 345.053 214.043 342.473" stroke="white" stroke-miterlimit="10" stroke-linecap="round"/>
</g>
</g>
</svg>
