<svg width="743" height="776" viewBox="0 0 743 776" fill="none" xmlns="http://www.w3.org/2000/svg">
<path id="together" d="M405.586 480.453L420.481 497.883C422.786 500.579 425.765 502.614 429.115 503.779L447 510M360 602L388.867 615.996C391.587 617.315 394.57 618 397.593 618H398.094C404.336 618 410.22 615.086 414.003 610.121L422.538 598.918C423.509 597.644 424.324 596.258 424.964 594.789L441 558M356.21 563.546H367.891C371.873 563.546 375.764 564.735 379.066 566.96L387.725 572.793C389.887 574.25 391.744 576.116 393.191 578.286L399 587M404 479L389.708 434M404 479L407.447 463.49C409.023 456.398 406.629 449.01 401.195 444.189L389.708 434M404 479L393.281 512L390.125 524.06C388.209 531.379 382.328 536.991 374.927 538.561L360.692 541.581C356.354 542.501 351.833 541.953 347.841 540.024L317.061 525.153M389.708 434L366.108 403.789C361.861 398.352 355.113 395.488 348.253 396.211L313.484 399.87C306.529 400.603 300.462 404.914 297.483 411.241L286.978 433.551C284.757 438.269 286.661 443.899 291.29 446.3C296.882 449.2 303.711 446.088 305.191 439.966L307.974 428.455C308.828 424.926 310.676 421.715 313.299 419.204L325 408M420.94 225.598L406.828 247.202C405.618 249.055 404.109 250.693 402.362 252.052L396.469 256.636C390.64 261.169 387.784 268.544 389.038 275.821L391.411 289.581C391.799 291.832 391.683 294.142 391.072 296.343C388.813 304.475 380.447 309.291 372.281 307.16L371.764 307.025C366.878 305.751 361.677 306.858 357.734 310.013L349 317M349 317L329.94 311M349 317V321.47C349 326.733 344.733 331 339.47 331C334.207 331 329.94 335.267 329.94 340.53V341.969C329.94 346.751 326.842 350.981 322.284 352.425L317.971 353.792C313.518 355.202 308.682 354.735 304.581 352.499L290.775 344.968C289.595 344.324 288.482 343.563 287.455 342.696L273 330.5M273 330.5L261.338 320.66C258.713 318.446 257.686 314.866 258.737 311.597C261.172 304.02 271.769 303.684 274.679 311.092L275.798 313.941C276.577 315.923 276.671 318.109 276.066 320.152L273 330.5ZM273 330.5L269.88 341.03C269.297 342.998 268.414 344.865 267.263 346.565L250.033 371.999C248.689 373.984 247.712 376.193 247.15 378.523L242.497 397.801C241.523 401.834 241.828 406.069 243.369 409.921L256.047 441.616C256.68 443.199 257.512 444.694 258.525 446.066L319 528L356 587L361.057 597.113C362.969 600.937 363.605 605.273 362.872 609.484L357.066 642.872C356.372 646.863 354.482 650.549 351.648 653.443L329.94 675.598M396.629 676.888L427.844 656.499C429.229 655.594 430.497 654.52 431.618 653.303L462.397 619.883C464.016 618.125 465.307 616.091 466.209 613.878L473.091 596.976M473.091 596.976L476.92 587.576C478.519 583.65 482.336 581.083 486.575 581.083C492.333 581.083 497 585.75 497 591.508V592.212C497 599.907 489.378 605.281 482.13 602.695L479.378 601.713C476.806 600.795 474.631 599.123 473.091 596.976ZM473.091 596.976C471.974 595.419 471.192 593.611 470.835 591.662L464.072 554.658L457.694 529.354L447.63 504.447C446.7 502.143 446.206 499.686 446.175 497.202L446.015 484.256C445.989 482.076 447.026 480.02 448.796 478.746C452.684 475.946 458.169 478.023 459.227 482.696L462.92 499.005C463.247 500.445 463.751 501.838 464.422 503.153L467.866 509.904C470.008 514.102 473.563 517.409 477.904 519.241L498.558 527.959C501.602 529.243 504.28 531.262 506.353 533.834L521.483 552.606C522.969 554.45 524.116 556.543 524.87 558.787L534.901 588.643C535.839 591.434 536.148 594.398 535.808 597.323L532.517 625.627C532.022 629.881 530.176 633.863 527.249 636.988L516 649M405.987 62.3447L414.83 103.548C415.595 107.115 415.37 110.823 414.18 114.271L405.987 138L390.729 173.624C388.736 178.276 393.567 182.918 398.137 180.741C401.78 179.005 405.987 181.661 405.987 185.697L405.987 194.285C405.987 196.694 406.784 199.035 408.254 200.943L416 211M416 211L428 211M416 211V216.78C416 220.632 418.046 224.194 421.373 226.134C425.343 228.45 427.419 233.02 426.551 237.534L424.4 248.722C423.499 253.405 424.378 258.255 426.865 262.324C431.133 269.308 439.368 272.807 447.358 271.032L456.879 268.916C459.596 268.312 462.41 268.282 465.14 268.828L491 274L518.022 279.254M518.022 279.254L522.966 280.216C525.596 280.727 528.319 280.447 530.79 279.411L547.831 272.265C551.822 270.591 552.008 265.004 548.137 263.068C546.784 262.392 545.199 262.356 543.817 262.97L527.675 270.145C523.476 272.011 520.09 275.244 518.022 279.254ZM518.022 279.254C517.385 280.488 516.874 281.795 516.502 283.158L514.129 291.859C513.385 294.588 513.228 297.445 513.669 300.24L518.55 331.152C518.849 333.041 518.874 334.963 518.627 336.859L514.159 371.112C513.422 376.766 510.306 381.837 505.594 385.049L491 395M91.2232 420.005L98.8844 427.363C106.412 434.593 109.64 445.215 107.41 455.411L104 471L85.7412 531.542C85.248 533.178 84.8953 534.852 84.6871 536.548L78.4379 587.435C78.147 589.803 78.1398 592.197 78.4163 594.568L84.7323 648.705C84.9105 650.232 85.2059 651.744 85.6159 653.226L96.7731 693.564C97.5863 696.504 98.8432 699.303 100.5 701.864L128.222 744.706C130.061 747.548 132.367 750.058 135.044 752.13L153.891 766.721C159.148 770.791 165.608 772.999 172.256 772.999H196.038C199.974 772.999 203.872 772.225 207.509 770.72L257.526 750.023C259.172 749.342 260.754 748.516 262.254 747.554L310.925 716.331C312.305 715.445 313.765 714.69 315.286 714.074C317.75 713.077 319.955 711.777 321.891 710.241M321.891 710.241L269.691 674.525C267.244 672.851 265.058 670.822 263.206 668.507L241.975 641.969C239.402 638.752 238 634.755 238 630.636V620.069C238 608.679 251.38 602.555 260 610L313 661L322.851 669.678C335.624 680.931 334.289 700.407 321.891 710.241ZM321.891 710.241L338.339 721.495C340.767 723.156 343.425 724.45 346.229 725.338L417.973 748.042C419.985 748.678 422.059 749.101 424.161 749.302L488.637 755.485C492.184 755.825 495.763 755.531 499.207 754.615L568.614 736.166C571.521 735.393 574.296 734.187 576.845 732.588L626.231 701.618C630.029 699.236 633.244 696.034 635.642 692.246L680.188 621.863C681.392 619.96 682.378 617.928 683.128 615.804L712 534L733.191 457.904C733.729 455.973 734.072 453.993 734.215 451.993L739.487 378.189C739.824 373.464 739.038 368.725 737.192 364.362L720.388 324.644C718.812 320.92 716.5 317.553 713.59 314.745L663.155 266.079C661.722 264.696 660.43 263.175 659.299 261.536L637.313 229.695C633.853 224.684 632 218.739 632 212.649L632 128M313.534 33.4948L352.7 70.0495C354.62 71.8417 356.879 73.2326 359.344 74.1407L362.201 75.1933C375.696 80.1652 389.317 68.1634 386.083 54.1496C385.131 50.0243 382.762 46.3635 379.389 43.8046L362.293 30.835C358.018 27.5918 352.618 26.2026 347.309 26.9796L320.962 30.8353C318.319 31.222 315.796 32.1315 313.534 33.4948ZM313.534 33.4948L298.533 19.4936C296.603 17.6923 294.336 16.2909 291.861 15.3702L262.181 4.32628C256.169 2.08936 249.449 2.87163 244.112 6.42971L233.72 13.3579C230.39 15.578 227.802 18.7463 226.292 22.4529L217.609 43.7648M313.534 33.4948C312.26 34.2627 311.068 35.1746 309.985 36.2181L291.888 53.6442C289.096 56.3333 287.145 59.776 286.273 63.5534L279.289 93.8211C278.838 95.7725 278.684 97.7805 278.83 99.7778L281.609 137.765L286.337 171.646C287.144 177.433 285.381 183.284 281.509 187.661L274.645 195.421C268.709 202.13 259.037 204.075 250.97 200.18L239.697 194.738C237.006 193.439 234.641 191.554 232.774 189.221L191.609 137.765L159.293 103.691C157.52 101.822 155.404 100.313 153.06 99.2475L129.554 88.5588C126.955 87.3765 124.132 86.7648 121.276 86.7648L111.354 86.7648C105.203 86.7648 99.3944 89.5949 95.6037 94.4387L89.3487 102.431C85.71 107.081 84.3115 113.1 85.5278 118.878L90.4066 142.052C91.192 145.783 93.0273 149.211 95.6962 151.933L140.218 197.345C141.143 198.289 142.16 199.139 143.253 199.883L181.53 225.911C187.63 230.059 190.628 237.476 189.123 244.697C187.605 251.987 181.804 257.619 174.473 258.922L141.609 264.765L132.413 267.721C121.99 271.071 116.198 282.179 119.418 292.643L122.225 301.765L130.859 320.372C134.327 327.845 132.857 336.68 127.157 342.628L119.514 350.603C115.742 354.539 110.527 356.765 105.075 356.765H32.6178C24.2077 356.765 16.696 362.026 13.8219 369.93L10.6093 378.765L3.60925 402.765" stroke="#5E548E" stroke-width="6"/>
</svg>
