<svg width="301" height="308" viewBox="0 0 301 308" fill="none" xmlns="http://www.w3.org/2000/svg">
<g id="trail" filter="url(#filter0_d_3_4)">
<path id="foot7" fill-rule="evenodd" clip-rule="evenodd" d="M41.9491 82.437C39.2782 81.157 34.1111 82.5655 30.417 85.581C26.9492 88.3191 25.2148 91.8206 23.1422 95.9248C21.8917 98.4012 20.5343 100.797 19.5964 103.516C18.9513 105.389 18.6688 107.126 18.7894 108.689C19.0214 111.688 20.707 113.695 21.6121 114.925C23.3589 118.145 29.8828 117.99 36.1723 114.578C42.4618 111.166 46.149 105.782 44.4022 102.562C44.0421 101.603 44.1541 99.7035 43.7419 97.8005C43.613 97.2049 43.3673 96.6525 43.0797 96.1076C41.2412 92.6253 44.6384 83.7269 41.9491 82.437Z" fill="#F9DEC9" fill-opacity="0.9"/>
<path id="foot6" fill-rule="evenodd" clip-rule="evenodd" d="M27.6867 131.424C27.7233 132.437 27.8407 134.117 27.6017 135.726C27.3394 137.492 26.8956 139.053 26.8196 139.617C26.0968 142.619 25.8237 145.06 26.173 147.482C26.3192 148.492 26.7718 149.354 27.2572 150.196C28.2625 151.937 29.795 153.375 31.046 155.116C32.7928 158.336 39.3175 158.181 45.607 154.769C51.8958 151.357 55.5835 145.973 53.8367 142.752C52.8427 140.368 52.1481 138.004 50.7883 135.988C50.2876 135.247 49.5479 134.687 48.862 134.046C47.8394 133.089 46.4312 132.574 45.4442 131.48C45.2875 131.259 44.7168 130.867 44.5173 130.081C44.096 128.418 44.2447 125.97 44.1765 124.83C44.1284 124.028 44.0247 123.515 43.9716 123.366C42.5331 119.327 35.8647 122.159 34.2207 122.97C32.6459 123.747 30.1057 125.193 28.4326 127.873C28.2752 128.125 27.813 128.86 27.6017 129.998C27.5133 130.529 27.5458 131.007 27.6867 131.424Z" fill="#F9DEC9" fill-opacity="0.9"/>
<path id="foot5" fill-rule="evenodd" clip-rule="evenodd" d="M60.0885 157.245C58.8013 155.88 56.9924 155.958 56.3922 155.973C54.8937 156.011 42.788 160.182 44.1212 166.137C44.2978 166.926 45.1195 168.312 45.4462 170.133C45.6134 171.063 45.5304 172.06 45.5801 173.053C45.4591 175.413 45.8206 177.388 46.8568 179.328C47.3316 180.218 48.1882 180.888 48.972 181.569C49.9134 182.388 51.1697 182.931 51.8333 183.79C53.5801 187.01 60.1045 186.854 66.3934 183.442C72.6829 180.031 76.3708 174.646 74.6241 171.426C73.7712 169.256 72.4705 167.027 70.2488 165.341C69.5759 164.829 68.7016 164.502 67.8315 164.142C66.5846 163.626 64.9861 163.703 63.8868 163.122C63.3123 162.76 62.6268 162.545 62.1931 162.082C60.9478 160.751 61.3074 158.59 60.0885 157.245Z" fill="#F9DEC9" fill-opacity="0.9"/>
<path id="foot4" fill-rule="evenodd" clip-rule="evenodd" d="M83.5238 188.395C79.4755 186.965 75.2639 189.434 73.6491 190.45C71.8986 191.552 68.0071 194.436 68.4882 197.796C69.0156 201.485 70.2408 205.198 70.9379 208.828C71.1685 210.027 71.7937 211.075 72.5953 211.97C75.118 214.784 79.4441 215.946 83.404 215.606C89.0863 215.47 96.3071 211.553 99.5191 206.864C102.352 202.728 89.6664 190.649 83.5238 188.395Z" fill="#F9DEC9" fill-opacity="0.9"/>
<path id="foot3" d="M154.229 212.54C155.976 215.761 152.288 221.145 146 224.557C139.179 228.257 122.754 229.411 117.194 227.215C114.624 226.2 112.513 224.675 109.803 223.697C106.335 222.445 102.711 221.909 101.427 221.256C99.3851 220.218 99.2917 218.692 99.421 217.86C99.9047 214.891 103.977 211.356 108.51 209.969C111.38 209.09 113.752 209.283 114.98 210.299C115.167 210.292 115.335 210.548 115.587 210.614C117.038 210.995 119.175 211.484 121.868 211.574C125.423 211.694 129.679 210.816 133.106 210.714C138.749 210.545 141.693 209.36 148.57 209.983C152.146 210.307 153.814 211.473 154.229 212.54Z" fill="#F9DEC9" fill-opacity="0.9"/>
<path id="foot2" d="M226.058 196.893C227.805 200.114 224.116 205.499 217.827 208.91C209.323 213.524 193.587 212.758 182.774 214.203C176.344 215.063 170.838 216.221 169.542 215.996C166.062 215.477 165.628 212.429 168.574 209.194C173.556 203.721 179.231 204.597 184.779 203.104C186.216 202.718 187.738 202.198 189.354 201.626C194.061 199.961 198.744 197.713 202.846 196.44C206.256 195.382 208.943 195.063 210.528 194.805C212.044 194.657 218.503 194.088 220.832 194.38C224.148 194.795 225.686 195.926 226.058 196.893Z" fill="#F9DEC9" fill-opacity="0.9"/>
<path id="foot1" fill-rule="evenodd" clip-rule="evenodd" d="M256.252 190.602C253.676 189.865 249.447 191 246.057 193.481C242.123 196.359 240.798 199.966 243.101 201.531C243.627 201.883 244.636 202.269 246.282 202.444C248.579 202.689 253.916 202.249 258.35 202.515C260.913 202.668 262.585 203.44 263.412 203.834L272.961 212.574C274.708 215.794 281.233 215.638 287.522 212.227C293.811 208.815 297.499 203.43 295.752 200.21C294.317 196.984 292.147 193.463 288.441 191.206C287.399 190.571 286.264 190.023 284.924 189.683C282.626 189.1 280.383 188.679 277.758 188.703C275.573 188.728 270.648 189.538 265.367 190.226C261.911 190.676 258.593 190.725 256.599 190.668C256.474 190.664 256.347 190.585 256.252 190.602Z" fill="#F9DEC9" fill-opacity="0.9"/>
</g>
<defs>
<filter id="filter0_d_3_4" x="14.7622" y="81.9642" width="285.423" height="154.361" filterUnits="userSpaceOnUse" color-interpolation-filters="sRGB">
<feFlood flood-opacity="0" result="BackgroundImageFix"/>
<feColorMatrix in="SourceAlpha" type="matrix" values="0 0 0 0 0 0 0 0 0 0 0 0 0 0 0 0 0 0 127 0" result="hardAlpha"/>
<feOffset dy="4"/>
<feGaussianBlur stdDeviation="2"/>
<feColorMatrix type="matrix" values="0 0 0 0 0.368627 0 0 0 0 0.329412 0 0 0 0 0.556863 0 0 0 1 0"/>
<feBlend mode="hard-light" in2="BackgroundImageFix" result="effect1_dropShadow_3_4"/>
<feBlend mode="normal" in="SourceGraphic" in2="effect1_dropShadow_3_4" result="shape"/>
</filter>
</defs>
</svg>
