<svg width="462" height="329" viewBox="0 0 462 329" fill="none" xmlns="http://www.w3.org/2000/svg">
<g id="waves">
<path id="topwave" fill-rule="evenodd" clip-rule="evenodd" d="M0 135.661H6.93C13.86 135.661 28.105 135.661 41.965 142.121C55.825 148.581 70.07 161.502 83.93 164.732C98.175 167.962 112.035 161.502 125.895 145.351C140.14 129.201 154 103.361 167.86 103.361C182.105 103.361 195.965 129.201 209.825 125.971C224.07 122.741 237.93 90.4409 252.175 96.9009C266.035 103.361 279.895 148.581 294.14 164.732C308 180.882 321.86 167.962 336.105 138.891C349.965 109.821 363.825 64.6006 378.07 48.4505C391.93 32.3003 406.175 45.2204 420.035 48.4505C433.895 51.6805 448.14 45.2204 455.07 41.9904L462 38.7604V0H455.07C448.14 0 433.895 0 420.035 0C406.175 0 391.93 0 378.07 0C363.825 0 349.965 0 336.105 0C321.86 0 308 0 294.14 0C279.895 0 266.035 0 252.175 0C237.93 0 224.07 0 209.825 0C195.965 0 182.105 0 167.86 0C154 0 140.14 0 125.895 0C112.035 0 98.175 0 83.93 0C70.07 0 55.825 0 41.965 0C28.105 0 13.86 0 6.93 0H0V135.661Z" fill="#99B2DD"/>
<path id="bottomwave" fill-rule="evenodd" clip-rule="evenodd" d="M0 255.154L10 243.286C19 231.418 39 206.363 58 219.55C77 231.418 96 280.209 116 289.44C135 298.67 154 268.341 173 261.748C193 255.154 212 273.616 231 264.385C250 255.154 270 219.55 289 194.495C308 170.759 327 157.572 347 166.803C366 176.034 385 206.363 404 228.781C424 249.88 443 261.748 452 268.341L462 273.616V329H452C443 329 424 329 404 329C385 329 366 329 347 329C327 329 308 329 289 329C270 329 250 329 231 329C212 329 193 329 173 329C154 329 135 329 116 329C96 329 77 329 58 329C39 329 19 329 10 329H0V255.154Z" fill="#5E548E"/>
</g>
</svg>
